<svg width="46" height="46" fill="none" xmlns="http://www.w3.org/2000/svg"><path d="M23.442 36.758a1.902 1.902 0 0 1 1.89 1.679l.012.223v1.902a1.902 1.902 0 0 1-3.79.222l-.014-.222V38.66a1.902 1.902 0 0 1 1.902-1.902zm12.008-3.976l.18.158 1.33 1.332a1.902 1.902 0 0 1-2.51 2.847l-.179-.158-1.331-1.331a1.902 1.902 0 0 1 2.317-2.98l.194.132zm-21.505.158a1.902 1.902 0 0 1 .158 2.51l-.158.18-1.332 1.331a1.903 1.903 0 0 1-2.847-2.51l.158-.18 1.331-1.33a1.902 1.902 0 0 1 2.69 0zm-5.72-11.399a1.902 1.902 0 0 1 .223 3.791l-.223.013H6.323a1.903 1.903 0 0 1-.222-3.79l.222-.014h1.902zm32.337 0a1.903 1.903 0 0 1 .222 3.791l-.222.013h-1.903a1.903 1.903 0 0 1-.222-3.79l.222-.014h1.903zM12.435 9.768l.178.158 1.332 1.331a1.902 1.902 0 0 1-2.51 2.847l-.18-.157-1.331-1.332a1.902 1.902 0 0 1 2.315-2.98l.196.133zm24.526.158a1.902 1.902 0 0 1 .158 2.51l-.158.18-1.332 1.33a1.902 1.902 0 0 1-2.847-2.51l.158-.179 1.331-1.331a1.902 1.902 0 0 1 2.69 0zM23.442 4.423a1.902 1.902 0 0 1 1.89 1.68l.012.222v1.902a1.902 1.902 0 0 1-3.79.223l-.014-.223V6.325a1.902 1.902 0 0 1 1.902-1.902zm0 9.51a9.511 9.511 0 1 1-9.5 9.923l-.01-.413.01-.412a9.51 9.51 0 0 1 9.5-9.098z" fill="#E3CD4F"/></svg>