<svg width="132" height="46" fill="none" xmlns="http://www.w3.org/2000/svg"><path d="M23.442 36.758a1.902 1.902 0 0 1 1.89 1.679l.012.223v1.902a1.902 1.902 0 0 1-3.79.222l-.014-.222V38.66a1.902 1.902 0 0 1 1.902-1.902zm12.008-3.976l.18.158 1.33 1.332a1.902 1.902 0 0 1-2.51 2.847l-.179-.158-1.331-1.331a1.902 1.902 0 0 1 2.317-2.98l.194.132zm-21.505.158a1.902 1.902 0 0 1 .158 2.51l-.158.18-1.332 1.331a1.903 1.903 0 0 1-2.847-2.51l.158-.18 1.331-1.33a1.902 1.902 0 0 1 2.69 0zm-5.72-11.399a1.902 1.902 0 0 1 .223 3.791l-.223.013H6.323a1.903 1.903 0 0 1-.222-3.79l.222-.014h1.902zm32.337 0a1.903 1.903 0 0 1 .222 3.791l-.222.013h-1.903a1.903 1.903 0 0 1-.222-3.79l.222-.014h1.903zM12.435 9.768l.178.158 1.332 1.331a1.902 1.902 0 0 1-2.51 2.847l-.18-.157-1.331-1.332a1.902 1.902 0 0 1 2.315-2.98l.196.133zm24.526.158a1.902 1.902 0 0 1 .158 2.51l-.158.18-1.332 1.33a1.902 1.902 0 0 1-2.847-2.51l.158-.179 1.331-1.331a1.902 1.902 0 0 1 2.69 0zM23.442 4.423a1.902 1.902 0 0 1 1.89 1.68l.012.222v1.902a1.902 1.902 0 0 1-3.79.223l-.014-.223V6.325a1.902 1.902 0 0 1 1.902-1.902zm0 9.51a9.511 9.511 0 1 1-9.5 9.923l-.01-.413.01-.412a9.51 9.51 0 0 1 9.5-9.098z" fill="#E3CD4F"/><path d="M55.435 21V6.455h9.46v2.208H58.07v3.95h6.335v2.208H58.07v3.97h6.882V21h-9.517zm14.206-6.392V21h-2.572V10.09h2.458v1.855h.128c.25-.611.65-1.097 1.2-1.456.554-.36 1.238-.54 2.052-.54.753 0 1.41.16 1.968.483.563.322.999.788 1.307 1.399.312.61.466 1.352.461 2.223V21h-2.57v-6.548c0-.73-.19-1.3-.569-1.712-.374-.412-.892-.618-1.555-.618-.45 0-.85.1-1.2.299a2.068 2.068 0 0 0-.817.845c-.195.369-.291.816-.291 1.342zm14.045 6.605c-1.093 0-2.038-.227-2.833-.682a4.617 4.617 0 0 1-1.826-1.946c-.426-.843-.639-1.835-.639-2.976 0-1.122.213-2.107.64-2.954.43-.852 1.032-1.515 1.803-1.989.772-.478 1.679-.717 2.72-.717.673 0 1.307.109 1.904.327a4.301 4.301 0 0 1 1.59.994c.465.45.83 1.023 1.095 1.719.265.69.397 1.515.397 2.471v.789h-8.941v-1.733h6.477a2.767 2.767 0 0 0-.32-1.314 2.324 2.324 0 0 0-.873-.916c-.37-.223-.8-.334-1.293-.334-.526 0-.987.127-1.385.383a2.644 2.644 0 0 0-.93.994 2.862 2.862 0 0 0-.334 1.343v1.513c0 .634.116 1.179.348 1.633.232.45.556.796.973 1.037.417.237.904.355 1.463.355.374 0 .713-.052 1.016-.156.303-.109.566-.267.788-.476.223-.208.39-.466.504-.774l2.4.27a3.742 3.742 0 0 1-.866 1.662c-.421.468-.96.833-1.619 1.093-.658.256-1.411.384-2.258.384zM90.313 21V10.09h2.493v1.82h.114c.199-.63.54-1.116 1.023-1.457a2.815 2.815 0 0 1 1.669-.518c.142 0 .3.007.476.021.18.01.329.026.447.05v2.365a2.71 2.71 0 0 0-.518-.1 4.78 4.78 0 0 0-.675-.05c-.469 0-.89.102-1.264.306-.37.199-.66.476-.874.831a2.34 2.34 0 0 0-.32 1.229V21h-2.57zm11.825 4.318c-.923 0-1.716-.125-2.379-.376-.663-.247-1.196-.578-1.598-.995a3.442 3.442 0 0 1-.838-1.384L99.637 22c.104.213.256.424.455.633.199.213.466.388.802.525.341.142.77.213 1.286.213.729 0 1.333-.177 1.811-.532.478-.35.717-.928.717-1.733V19.04h-.128a3.618 3.618 0 0 1-.582.817c-.251.279-.585.513-1.001.703-.412.19-.931.284-1.556.284a4.482 4.482 0 0 1-2.28-.59c-.677-.398-1.216-.99-1.619-1.775-.398-.791-.597-1.78-.597-2.97 0-1.197.2-2.208.597-3.032.403-.828.945-1.456 1.626-1.882a4.179 4.179 0 0 1 2.28-.646c.64 0 1.165.109 1.577.327.417.213.748.47.994.774.247.298.434.58.561.845h.142V10.09h2.536v11.087c0 .932-.223 1.704-.668 2.315-.445.61-1.053 1.068-1.825 1.37-.772.304-1.648.455-2.628.455zm.022-6.491c.544 0 1.008-.133 1.392-.398.383-.265.674-.646.873-1.143.199-.498.298-1.094.298-1.79 0-.687-.099-1.288-.298-1.804-.194-.516-.483-.916-.866-1.2-.379-.29-.845-.434-1.399-.434-.573 0-1.052.15-1.435.448-.384.298-.672.707-.867 1.228-.194.517-.29 1.104-.29 1.762 0 .667.096 1.252.29 1.754.199.497.49.885.874 1.165.388.274.864.412 1.428.412zm8.932 6.264c-.35 0-.675-.029-.973-.085a3.592 3.592 0 0 1-.703-.185l.596-2.003c.374.11.708.161 1.002.156a1.23 1.23 0 0 0 .774-.277c.227-.175.419-.468.575-.88l.22-.59-3.956-11.136h2.728l2.514 8.239h.114l2.521-8.24h2.734l-4.368 12.231a4.888 4.888 0 0 1-.809 1.484 3.295 3.295 0 0 1-1.236.952c-.483.223-1.061.334-1.733.334zM55.435 40V25.454h9.46v2.21H58.07v3.948h6.335v2.209H58.07v3.97h6.882V40h-9.517zm13.737-10.91l2.201 4.028 2.238-4.027h2.72l-3.288 5.454L76.388 40h-2.706l-2.309-3.928L69.086 40H66.36l3.324-5.455-3.239-5.454h2.728zm8.748 15v-15h2.528v1.805h.149a4.73 4.73 0 0 1 .561-.845c.242-.303.568-.561.98-.774.412-.218.938-.327 1.577-.327.843 0 1.603.215 2.28.646.682.426 1.221 1.058 1.62 1.896.401.834.603 1.856.603 3.069 0 1.198-.197 2.216-.59 3.054-.393.838-.928 1.477-1.605 1.917-.677.44-1.444.66-2.301.66-.625 0-1.143-.103-1.555-.312a3.165 3.165 0 0 1-.995-.753 4.873 4.873 0 0 1-.575-.845h-.106v5.81h-2.572zm2.52-9.545c0 .706.1 1.324.3 1.854.203.53.494.945.873 1.243.383.294.847.44 1.392.44.568 0 1.044-.151 1.427-.454.384-.308.673-.727.867-1.257.199-.535.298-1.144.298-1.826 0-.677-.097-1.278-.291-1.803-.194-.526-.483-.938-.867-1.236-.383-.299-.861-.448-1.434-.448-.55 0-1.016.145-1.4.433-.383.29-.674.694-.873 1.215-.194.52-.291 1.134-.291 1.84zm12.15-9.09V40h-2.57V25.454h2.57zm7.003 14.758c-1.066 0-1.989-.234-2.77-.703a4.774 4.774 0 0 1-1.818-1.967c-.426-.843-.64-1.828-.64-2.955s.214-2.114.64-2.962a4.764 4.764 0 0 1 1.818-1.974c.781-.469 1.705-.703 2.77-.703s1.988.234 2.77.703a4.719 4.719 0 0 1 1.811 1.974c.431.848.646 1.835.646 2.962 0 1.127-.215 2.112-.646 2.955a4.728 4.728 0 0 1-1.811 1.967c-.782.469-1.705.703-2.77.703zm.014-2.06c.578 0 1.061-.158 1.449-.475.388-.322.677-.753.866-1.293a5.28 5.28 0 0 0 .292-1.804c0-.668-.097-1.271-.292-1.811-.189-.545-.478-.978-.866-1.3-.388-.322-.871-.483-1.449-.483-.592 0-1.084.161-1.477.483-.388.322-.68.755-.874 1.3a5.444 5.444 0 0 0-.284 1.811c0 .663.095 1.264.284 1.804.194.54.486.97.874 1.293.393.317.885.475 1.477.475zM106.602 40V29.09h2.493v1.82h.114c.199-.63.54-1.116 1.023-1.457a2.813 2.813 0 0 1 1.669-.518c.142 0 .3.007.475.021.18.01.329.026.448.05v2.365a2.715 2.715 0 0 0-.519-.1 4.776 4.776 0 0 0-.674-.05c-.469 0-.89.102-1.265.306-.369.199-.66.476-.873.831-.213.355-.32.765-.32 1.229V40h-2.571zm11.91.213c-1.093 0-2.038-.227-2.834-.682a4.62 4.62 0 0 1-1.825-1.946c-.426-.843-.639-1.834-.639-2.976 0-1.122.213-2.107.639-2.954.431-.852 1.032-1.515 1.804-1.989.772-.478 1.679-.717 2.72-.717a5.51 5.51 0 0 1 1.904.327 4.31 4.31 0 0 1 1.591.994c.464.45.828 1.023 1.093 1.719.266.69.398 1.515.398 2.471v.789h-8.942v-1.733h6.478a2.773 2.773 0 0 0-.32-1.314 2.316 2.316 0 0 0-.874-.916c-.369-.223-.8-.334-1.292-.334-.526 0-.987.127-1.385.383a2.636 2.636 0 0 0-.93.995 2.85 2.85 0 0 0-.334 1.342v1.513c0 .634.116 1.179.348 1.633.232.45.556.796.973 1.037.416.237.904.355 1.463.355.374 0 .712-.052 1.015-.156a2.26 2.26 0 0 0 .789-.476c.222-.208.39-.466.504-.774l2.401.27a3.75 3.75 0 0 1-.867 1.662c-.421.469-.961.833-1.619 1.094-.658.255-1.411.383-2.259.383zm6.626-.213V29.09h2.493v1.82h.114c.199-.63.54-1.116 1.022-1.457a2.819 2.819 0 0 1 1.67-.518c.142 0 .3.007.475.021.18.01.329.026.448.05v2.365a2.715 2.715 0 0 0-.519-.1 4.776 4.776 0 0 0-.674-.05c-.469 0-.891.102-1.265.306-.369.199-.66.476-.873.831-.213.355-.32.765-.32 1.229V40h-2.571z" fill="#000"/></svg>