<svg width="63" height="24" viewBox="0 0 63 24" fill="none" xmlns="http://www.w3.org/2000/svg">
<path d="M14.468 10C14.1618 9.46803 13.7373 9.01367 13.2273 8.67209C12.7173 8.33051 12.1356 8.11088 11.5271 8.0302C10.9186 7.94952 10.2997 8.00996 9.71834 8.20683C9.13696 8.4037 8.60869 8.73173 8.17443 9.16551C7.74016 9.5993 7.41156 10.1272 7.21405 10.7084C7.01654 11.2895 6.95542 11.9083 7.03543 12.5169C7.11544 13.1255 7.33444 13.7075 7.67545 14.2178C8.01647 14.7282 8.47037 15.1532 9.002 15.46M2 12H3M11 3V4M11 20V21M4.6 5.6L5.3 6.3M17.4 5.6L16.7 6.3M5.3 17.7L4.6 18.4M15 13H20C20.5304 13 21.0391 12.7893 21.4142 12.4142C21.7893 12.0391 22 11.5304 22 11C22 10.4696 21.7893 9.96086 21.4142 9.58579C21.0391 9.21071 20.5304 9 20 9M12 16H17.967C18.2324 15.9956 18.496 16.0441 18.7425 16.1427C18.989 16.2412 19.2134 16.3878 19.4026 16.574C19.5918 16.7601 19.7421 16.9821 19.8447 17.2269C19.9472 17.4718 20 17.7346 20 18C20 18.5304 19.7893 19.0391 19.4142 19.4142C19.0391 19.7893 18.5304 20 18 20H17.714" stroke="url(#paint0_linear_72_77)" stroke-width="2" stroke-linecap="round" stroke-linejoin="round"/>
<path d="M27.69 11V4H32.1V4.89H28.75V6.86H31.65V7.74H28.75V10.11H32.1V11H27.69ZM32.9048 11V6.04H33.9248L33.9448 6.77C34.1114 6.49667 34.3414 6.28667 34.6348 6.14C34.9348 5.99333 35.2514 5.92 35.5848 5.92C36.1648 5.92 36.6348 6.10333 36.9948 6.47C37.3548 6.83 37.5348 7.37 37.5348 8.09V11H36.4748V8.22C36.4748 7.77333 36.3748 7.43 36.1748 7.19C35.9748 6.94333 35.6748 6.82 35.2748 6.82C34.8814 6.82 34.5648 6.95667 34.3248 7.23C34.0848 7.49667 33.9648 7.86667 33.9648 8.34V11H32.9048ZM40.5884 11.12C40.1017 11.12 39.6717 11.01 39.2984 10.79C38.925 10.57 38.6317 10.2633 38.4184 9.87C38.2117 9.47667 38.1084 9.02667 38.1084 8.52C38.1084 7.99333 38.2117 7.53667 38.4184 7.15C38.625 6.76333 38.915 6.46333 39.2884 6.25C39.6684 6.03 40.105 5.92 40.5984 5.92C41.0784 5.92 41.4984 6.02667 41.8584 6.24C42.2184 6.44667 42.4984 6.73 42.6984 7.09C42.905 7.45 43.0084 7.86 43.0084 8.32C43.0084 8.41333 43.005 8.49333 42.9984 8.56C42.9984 8.62667 42.9917 8.70667 42.9784 8.8H39.1684C39.1884 9.08 39.2584 9.33 39.3784 9.55C39.4984 9.76333 39.6617 9.93333 39.8684 10.06C40.075 10.18 40.3117 10.24 40.5784 10.24C40.865 10.24 41.1084 10.1767 41.3084 10.05C41.515 9.91667 41.6684 9.73 41.7684 9.49H42.8684C42.7817 9.79 42.635 10.0633 42.4284 10.31C42.2284 10.5567 41.975 10.7533 41.6684 10.9C41.3617 11.0467 41.0017 11.12 40.5884 11.12ZM39.1784 8.05H41.9284C41.915 7.66333 41.7784 7.36 41.5184 7.14C41.2584 6.91333 40.9417 6.8 40.5684 6.8C40.235 6.8 39.9317 6.90333 39.6584 7.11C39.385 7.31667 39.225 7.63 39.1784 8.05ZM43.5938 11V6.04H44.6138L44.6438 6.88C44.8105 6.58 45.0372 6.34667 45.3238 6.18C45.6172 6.00667 45.9605 5.92 46.3538 5.92V7.03H46.0638C45.5905 7.03 45.2372 7.15333 45.0038 7.4C44.7705 7.64 44.6538 8.01 44.6538 8.51V11H43.5938ZM48.8211 13.32C48.4011 13.32 48.0111 13.27 47.6511 13.17C47.2911 13.07 47.0011 12.9033 46.7811 12.67C46.5678 12.4433 46.4611 12.14 46.4611 11.76C46.4611 11.5067 46.5178 11.2933 46.6311 11.12C46.7444 10.9467 46.9044 10.8033 47.1111 10.69C46.9444 10.5967 46.8144 10.4767 46.7211 10.33C46.6278 10.1833 46.5811 10.0133 46.5811 9.82C46.5811 9.4 46.7744 9.07 47.1611 8.83C47.0211 8.67667 46.9111 8.50333 46.8311 8.31C46.7511 8.11667 46.7111 7.90667 46.7111 7.68C46.7111 7.32 46.7978 7.01 46.9711 6.75C47.1444 6.48333 47.3811 6.28 47.6811 6.14C47.9811 5.99333 48.3244 5.92 48.7111 5.92C48.9978 5.92 49.2611 5.96 49.5011 6.04H51.2411V6.87H50.5111C50.5711 6.99667 50.6178 7.12667 50.6511 7.26C50.6911 7.39333 50.7111 7.53333 50.7111 7.68C50.7111 8.04667 50.6211 8.36333 50.4411 8.63C50.2678 8.89 50.0311 9.09333 49.7311 9.24C49.4311 9.38 49.0911 9.45 48.7111 9.45C48.5378 9.45 48.3778 9.43333 48.2311 9.4C48.0844 9.36 47.9378 9.30667 47.7911 9.24C47.6311 9.32 47.5511 9.44333 47.5511 9.61C47.5511 9.92333 47.8144 10.08 48.3411 10.08H49.2111C49.5978 10.08 49.9311 10.1333 50.2111 10.24C50.4978 10.34 50.7178 10.5033 50.8711 10.73C51.0311 10.9567 51.1111 11.2533 51.1111 11.62C51.1111 11.98 51.0044 12.2867 50.7911 12.54C50.5844 12.7933 50.3078 12.9867 49.9611 13.12C49.6144 13.2533 49.2344 13.32 48.8211 13.32ZM48.8111 12.47C49.1711 12.47 49.4778 12.4067 49.7311 12.28C49.9844 12.1533 50.1111 11.96 50.1111 11.7C50.1111 11.22 49.8011 10.98 49.1811 10.98H48.3911C48.0978 10.98 47.8678 11.04 47.7011 11.16C47.5344 11.28 47.4511 11.46 47.4511 11.7C47.4511 11.8867 47.5144 12.0367 47.6411 12.15C47.7678 12.2633 47.9344 12.3433 48.1411 12.39C48.3478 12.4433 48.5711 12.47 48.8111 12.47ZM48.7011 8.6C49.0011 8.6 49.2444 8.51333 49.4311 8.34C49.6244 8.16667 49.7211 7.94667 49.7211 7.68C49.7211 7.42 49.6244 7.20333 49.4311 7.03C49.2444 6.85667 49.0011 6.77 48.7011 6.77C48.4011 6.77 48.1578 6.85667 47.9711 7.03C47.7911 7.20333 47.7011 7.42 47.7011 7.68C47.7011 7.94667 47.7878 8.16667 47.9611 8.34C48.1411 8.51333 48.3878 8.6 48.7011 8.6ZM52.2243 13.2L53.3243 10.78L51.2543 6.04H52.4243L53.8843 9.66L55.4043 6.04H56.5143L53.3443 13.2H52.2243Z" fill="black"/>
<path d="M27.69 20V13H32.1V13.89H28.75V15.86H31.65V16.74H28.75V19.11H32.1V20H27.69ZM32.4348 20L34.1148 17.51L32.4248 15.04H33.5948L34.8048 16.83L35.9648 15.04H37.0948L35.4148 17.51L37.1048 20H35.9448L34.7248 18.2L33.5648 20H32.4348ZM37.4583 22.2V15.04H38.4783L38.5183 15.79C38.6916 15.5367 38.9249 15.33 39.2183 15.17C39.5116 15.0033 39.8583 14.92 40.2583 14.92C40.7516 14.92 41.1749 15.0367 41.5283 15.27C41.8816 15.4967 42.1549 15.8067 42.3483 16.2C42.5416 16.5867 42.6383 17.0233 42.6383 17.51C42.6383 17.9967 42.5416 18.44 42.3483 18.84C42.1549 19.2333 41.8783 19.5467 41.5183 19.78C41.1649 20.0067 40.7449 20.12 40.2583 20.12C39.8449 20.12 39.4883 20.0367 39.1883 19.87C38.8949 19.6967 38.6716 19.4867 38.5183 19.24V22.2H37.4583ZM40.0383 19.19C40.3449 19.19 40.6116 19.1167 40.8383 18.97C41.0649 18.8233 41.2416 18.6233 41.3683 18.37C41.4949 18.1167 41.5583 17.83 41.5583 17.51C41.5583 17.1767 41.4916 16.8867 41.3583 16.64C41.2316 16.3867 41.0549 16.19 40.8283 16.05C40.6016 15.91 40.3383 15.84 40.0383 15.84C39.7449 15.84 39.4849 15.9133 39.2583 16.06C39.0316 16.2 38.8516 16.3967 38.7183 16.65C38.5916 16.8967 38.5283 17.1867 38.5283 17.52C38.5283 17.8267 38.5916 18.11 38.7183 18.37C38.8449 18.6233 39.0216 18.8233 39.2483 18.97C39.4749 19.1167 39.7383 19.19 40.0383 19.19ZM43.2618 20V13H44.3218V20H43.2618ZM47.4995 20.12C47.0195 20.12 46.5862 20.0167 46.1995 19.81C45.8195 19.5967 45.5162 19.2933 45.2895 18.9C45.0695 18.5067 44.9595 18.0433 44.9595 17.51C44.9595 16.9767 45.0729 16.5167 45.2995 16.13C45.5329 15.7433 45.8429 15.4467 46.2295 15.24C46.6229 15.0267 47.0595 14.92 47.5395 14.92C48.0195 14.92 48.4529 15.0233 48.8395 15.23C49.2262 15.4367 49.5362 15.7333 49.7695 16.12C50.0029 16.5067 50.1195 16.97 50.1195 17.51C50.1195 18.0167 50.0062 18.4667 49.7795 18.86C49.5595 19.2533 49.2529 19.5633 48.8595 19.79C48.4662 20.01 48.0129 20.12 47.4995 20.12ZM47.5095 19.2C47.8029 19.2 48.0629 19.1267 48.2895 18.98C48.5229 18.8333 48.7062 18.6333 48.8395 18.38C48.9729 18.12 49.0395 17.8267 49.0395 17.5C49.0395 17.1667 48.9729 16.8767 48.8395 16.63C48.7129 16.3767 48.5362 16.1833 48.3095 16.05C48.0829 15.91 47.8195 15.84 47.5195 15.84C47.2062 15.84 46.9362 15.9133 46.7095 16.06C46.4895 16.2067 46.3195 16.4067 46.1995 16.66C46.0862 16.9067 46.0295 17.19 46.0295 17.51C46.0295 17.8767 46.0962 18.1867 46.2295 18.44C46.3695 18.6933 46.5529 18.8833 46.7795 19.01C47.0062 19.1367 47.2495 19.2 47.5095 19.2ZM50.7673 20V15.04H51.7873L51.8173 15.88C51.9839 15.58 52.2106 15.3467 52.4973 15.18C52.7906 15.0067 53.1339 14.92 53.5273 14.92V16.03H53.2373C52.7639 16.03 52.4106 16.1533 52.1773 16.4C51.9439 16.64 51.8273 17.01 51.8273 17.51V20H50.7673ZM56.1559 20.12C55.6693 20.12 55.2393 20.01 54.8659 19.79C54.4926 19.57 54.1993 19.2633 53.9859 18.87C53.7793 18.4767 53.6759 18.0267 53.6759 17.52C53.6759 16.9933 53.7793 16.5367 53.9859 16.15C54.1926 15.7633 54.4826 15.4633 54.8559 15.25C55.2359 15.03 55.6726 14.92 56.1659 14.92C56.6459 14.92 57.0659 15.0267 57.4259 15.24C57.7859 15.4467 58.0659 15.73 58.2659 16.09C58.4726 16.45 58.5759 16.86 58.5759 17.32C58.5759 17.4133 58.5726 17.4933 58.5659 17.56C58.5659 17.6267 58.5593 17.7067 58.5459 17.8H54.7359C54.7559 18.08 54.8259 18.33 54.9459 18.55C55.0659 18.7633 55.2293 18.9333 55.4359 19.06C55.6426 19.18 55.8793 19.24 56.1459 19.24C56.4326 19.24 56.6759 19.1767 56.8759 19.05C57.0826 18.9167 57.2359 18.73 57.3359 18.49H58.4359C58.3493 18.79 58.2026 19.0633 57.9959 19.31C57.7959 19.5567 57.5426 19.7533 57.2359 19.9C56.9293 20.0467 56.5693 20.12 56.1559 20.12ZM54.7459 17.05H57.4959C57.4826 16.6633 57.3459 16.36 57.0859 16.14C56.8259 15.9133 56.5093 15.8 56.1359 15.8C55.8026 15.8 55.4993 15.9033 55.2259 16.11C54.9526 16.3167 54.7926 16.63 54.7459 17.05ZM59.1614 20V15.04H60.1814L60.2114 15.88C60.3781 15.58 60.6047 15.3467 60.8914 15.18C61.1847 15.0067 61.5281 14.92 61.9214 14.92V16.03H61.6314C61.1581 16.03 60.8047 16.1533 60.5714 16.4C60.3381 16.64 60.2214 17.01 60.2214 17.51V20H59.1614Z" fill="black"/>
<defs>
<linearGradient id="paint0_linear_72_77" x1="2" y1="12" x2="22" y2="12" gradientUnits="userSpaceOnUse">
<stop offset="0.153846" stop-color="#FDC52D"/>
<stop offset="0.528846" stop-color="#E0C551"/>
<stop offset="0.759615" stop-color="#67C4EC"/>
</linearGradient>
</defs>
</svg>
