<svg width="63" height="24" fill="none" xmlns="http://www.w3.org/2000/svg"><path d="M14.468 10a4 4 0 1 0-5.466 5.46M2 12h1m8-9v1m0 16v1M4.6 5.6l.7.7m12.1-.7l-.7.7M5.3 17.7l-.7.7M15 13h5a2 2 0 0 0 0-4m-8 7h5.967a1.999 1.999 0 0 1 1.447 3.414A2 2 0 0 1 18 20h-.286" stroke="url(#paint0_linear_71_76)" stroke-width="2" stroke-linecap="round" stroke-linejoin="round"/><path d="M31.12 10.436h.336V12.5h-5.94v-.336l.66-.084c.128-.016.204-.048.228-.096.024-.056.036-.22.036-.492V5.348c0-.272-.012-.432-.036-.48-.024-.056-.1-.092-.228-.108l-.66-.084V4.34h5.82v2.064H31l-.384-1.332a.555.555 0 0 0-.084-.204c-.024-.048-.076-.076-.156-.084a2.372 2.372 0 0 0-.408-.024H27.88v3.408h1.368c.192 0 .328-.004.408-.012.08-.016.132-.044.156-.084a.712.712 0 0 0 .084-.216l.264-.972h.336v2.988h-.336l-.264-.972a.555.555 0 0 0-.084-.204c-.024-.048-.076-.076-.156-.084a2.372 2.372 0 0 0-.408-.024H27.88v3.492h2.208c.192 0 .328-.004.408-.012.08-.016.132-.044.156-.084a.712.712 0 0 0 .084-.216l.384-1.332zm7.974 1.728v.336h-3.227v-.336l.66-.084c.127-.016.203-.048.227-.096.025-.056.037-.22.037-.492V8.468c0-.552-.084-.952-.252-1.2-.16-.256-.4-.384-.72-.384a1.35 1.35 0 0 0-.48.108 1.589 1.589 0 0 0-.54.36c-.176.176-.332.436-.468.78v3.36c0 .272.011.436.035.492.025.048.1.08.228.096l.66.084v.336h-3.227v-.336l.66-.084c.128-.016.204-.048.227-.096.024-.056.036-.22.036-.492V7.424c0-.272-.012-.432-.036-.48-.023-.056-.1-.092-.227-.108l-.66-.084v-.336h2.231v1.056c.232-.408.528-.704.889-.888a2.368 2.368 0 0 1 1.104-.288c.592 0 1.06.188 1.404.564.343.376.515.908.515 1.596v3.036c0 .272.012.436.036.492.024.048.1.08.228.096l.66.084zm5.341-1.092c-.144.56-.412.96-.804 1.2-.392.232-.848.348-1.368.348-.96 0-1.68-.276-2.16-.828-.48-.56-.72-1.3-.72-2.22v-.24c0-.92.224-1.656.672-2.208.456-.552 1.112-.828 1.968-.828.48 0 .904.096 1.272.288.376.184.668.452.876.804.216.352.324.78.324 1.284 0 .12-.008.248-.024.384a2.392 2.392 0 0 1-.06.408h-3.552v.348c0 .848.12 1.46.36 1.836.24.368.628.552 1.164.552.344 0 .636-.1.876-.3.24-.208.376-.556.408-1.044l.768.216zm-2.412-4.356c-.392 0-.684.18-.876.54-.192.36-.288.956-.288 1.788h2.172a3.25 3.25 0 0 0 .06-.444c.016-.144.024-.276.024-.396 0-.512-.1-.888-.3-1.128a.98.98 0 0 0-.792-.36zm2.872.036v-.336h2.232V7.4c.488-.736 1.068-1.104 1.74-1.104.248 0 .488.08.72.24.232.152.424.44.576.864l-1.068.576c-.112-.328-.244-.548-.396-.66a.717.717 0 0 0-.468-.18.92.92 0 0 0-.516.168c-.168.112-.34.32-.516.624v3.564c0 .272.012.436.036.492.024.048.1.08.228.096l.9.084v.336h-3.468v-.336l.66-.084c.128-.016.204-.048.228-.096.024-.056.036-.22.036-.492V7.424c0-.272-.012-.432-.036-.48-.024-.056-.1-.092-.228-.108l-.66-.084zm10.919 6.372c0 .656-.248 1.16-.744 1.512-.488.36-1.16.54-2.016.54-.944 0-1.648-.156-2.112-.468-.464-.304-.716-.684-.756-1.14l1.284-.204c-.032.424.068.76.3 1.008.24.256.668.384 1.284.384.576 0 1.04-.108 1.392-.324.36-.216.54-.528.54-.936 0-.288-.108-.508-.324-.66-.208-.144-.556-.216-1.044-.216H52.25c-.424 0-.76-.06-1.008-.18-.24-.12-.408-.268-.504-.444a1.206 1.206 0 0 1-.144-.564c0-.232.064-.46.192-.684.128-.232.348-.46.66-.684a2.04 2.04 0 0 1-.84-.672c-.216-.296-.324-.664-.324-1.104 0-.448.104-.816.312-1.104.208-.296.488-.516.84-.66a2.937 2.937 0 0 1 1.176-.228h.204c.464 0 .864.076 1.2.228l1.728-.852.144 1.176h-1.368a1.7 1.7 0 0 1 .444.612c.112.232.168.508.168.828 0 .432-.104.796-.312 1.092-.208.296-.488.52-.84.672a2.851 2.851 0 0 1-1.164.228h-.204c-.24 0-.476-.024-.708-.072-.2.136-.34.268-.42.396a.677.677 0 0 0-.108.348c0 .128.056.224.168.288.12.064.312.096.576.096h1.56c.688 0 1.216.156 1.584.468.368.304.552.744.552 1.32zm-3-3.264c.256 0 .476-.112.66-.336.184-.224.276-.636.276-1.236s-.092-1.012-.276-1.236c-.184-.224-.404-.336-.66-.336h-.204c-.256 0-.48.112-.672.336-.184.224-.276.636-.276 1.236s.092 1.012.276 1.236c.192.224.416.336.672.336h.204zm6.41 3.24c-.184.504-.388.908-.612 1.212a1.878 1.878 0 0 1-.804.66c-.32.136-.72.204-1.2.204v-1.32c.488 0 .88-.036 1.176-.108.304-.064.536-.172.696-.324a1.27 1.27 0 0 0 .372-.564l.12-.36h-.624l-1.704-5.076a2.214 2.214 0 0 0-.144-.384c-.032-.08-.072-.132-.12-.156a.473.473 0 0 0-.192-.048l-.66-.084v-.336h3.24v.336l-.66.084c-.096.008-.156.04-.18.096-.016.048.02.212.108.492l1.308 3.96L60.7 7.376c.088-.256.124-.404.108-.444-.008-.048-.072-.08-.192-.096l-.66-.084v-.336h2.292v.336l-.66.084c-.12.016-.2.048-.24.096-.04.048-.104.196-.192.444L59.224 13.1zM29.59 19.952h.252V21.5h-4.455v-.252l.495-.063c.096-.012.153-.036.171-.072.018-.042.027-.165.027-.369v-4.608c0-.204-.009-.324-.027-.36-.018-.042-.075-.069-.171-.081l-.495-.063v-.252h4.365v1.548H29.5l-.288-.999a.416.416 0 0 0-.063-.153c-.018-.036-.057-.057-.117-.063a1.779 1.779 0 0 0-.306-.018H27.16v2.556h1.026c.144 0 .246-.003.306-.009.06-.012.099-.033.117-.063a.534.534 0 0 0 .063-.162l.198-.729h.252v2.241h-.252l-.198-.729a.416.416 0 0 0-.063-.153c-.018-.036-.057-.057-.117-.063a1.779 1.779 0 0 0-.306-.018H27.16v2.619h1.656c.144 0 .246-.003.306-.009.06-.012.099-.033.117-.063a.534.534 0 0 0 .063-.162l.288-.999zm2.318 1.296v.252h-1.8v-.252l.495-.063a.823.823 0 0 0 .135-.036.429.429 0 0 0 .126-.117c.048-.06.117-.156.207-.288l.963-1.404-.963-1.647a2.641 2.641 0 0 0-.18-.288.355.355 0 0 0-.117-.117.42.42 0 0 0-.144-.036l-.495-.063v-.252h2.493v.252l-.495.063c-.096.012-.141.036-.135.072.006.036.069.159.189.369l.603 1.026.693-1.026c.138-.204.207-.324.207-.36.006-.042-.04-.069-.135-.081l-.495-.063v-.252h1.8v.252l-.495.063a.42.42 0 0 0-.144.036.521.521 0 0 0-.117.117 7.74 7.74 0 0 0-.207.288l-.918 1.35.99 1.701.18.297c.042.054.08.09.117.108.036.012.084.024.144.036l.495.063v.252h-2.493v-.252l.495-.063c.096-.012.14-.036.135-.072-.006-.042-.07-.165-.19-.369l-.63-1.089-.737 1.089c-.138.204-.21.327-.216.369 0 .036.048.06.144.072l.495.063zm2.826-4.059v-.252h1.674v.747c.174-.282.363-.492.567-.63a1.27 1.27 0 0 1 .729-.207c.504 0 .903.201 1.197.603.3.396.45.954.45 1.674v.18c0 .696-.171 1.251-.513 1.665-.342.414-.816.621-1.422.621-.36 0-.678-.09-.954-.27v1.341c0 .204.009.324.027.36.018.042.075.069.17.081l.676.063v.252h-2.601v-.252l.495-.063c.096-.012.153-.039.17-.081.019-.036.028-.156.028-.36v-4.968c0-.204-.01-.324-.027-.36-.018-.042-.075-.069-.171-.081l-.495-.063zm2.736.054c-.15 0-.31.063-.477.189-.162.12-.34.369-.531.747v2.718c.228.228.507.342.837.342.336 0 .576-.147.72-.441.15-.3.225-.708.225-1.224v-.72c0-.558-.07-.966-.207-1.224-.138-.258-.327-.387-.567-.387zm2.168-2.151v-.252h1.728v5.904c0 .204.01.327.027.369.018.036.075.06.171.072l.495.063v.252h-2.42v-.252l.494-.063c.096-.012.153-.036.171-.072.018-.042.027-.165.027-.369v-5.148c0-.204-.009-.324-.027-.36-.018-.042-.075-.069-.17-.081l-.496-.063zm6.793 4.032v.18c0 .69-.18 1.245-.54 1.665-.354.414-.86.621-1.52.621s-1.17-.207-1.53-.621c-.355-.42-.532-.975-.532-1.665v-.18c0-.69.177-1.242.531-1.656.36-.414.87-.621 1.53-.621s1.167.207 1.521.621c.36.414.54.966.54 1.656zm-1.107-.18c0-.642-.08-1.098-.243-1.368a.777.777 0 0 0-.71-.414c-.307 0-.544.138-.712.414-.162.27-.243.726-.243 1.368v.54c0 .636.081 1.095.243 1.377.168.276.405.414.711.414a.777.777 0 0 0 .711-.414c.162-.282.243-.741.243-1.377v-.54zm1.418-1.755v-.252h1.674v.738c.366-.552.801-.828 1.305-.828a.94.94 0 0 1 .54.18c.174.114.318.33.432.648l-.801.432c-.084-.246-.183-.411-.297-.495a.538.538 0 0 0-.351-.135.69.69 0 0 0-.387.126c-.126.084-.255.24-.387.468v2.673c0 .204.009.327.027.369.018.036.075.06.171.072l.675.063v.252h-2.601v-.252l.495-.063c.096-.012.153-.036.171-.072.018-.042.027-.165.027-.369v-3.051c0-.204-.009-.324-.027-.36-.018-.042-.075-.069-.171-.081l-.495-.063zm7.724 3.24c-.108.42-.309.72-.603.9a1.977 1.977 0 0 1-1.026.261c-.72 0-1.26-.207-1.62-.621-.36-.42-.54-.975-.54-1.665v-.18c0-.69.168-1.242.504-1.656.342-.414.834-.621 1.476-.621.36 0 .678.072.954.216.282.138.501.339.657.603.162.264.243.585.243.963 0 .09-.006.186-.018.288a1.794 1.794 0 0 1-.045.306h-2.664v.261c0 .636.09 1.095.27 1.377.18.276.471.414.873.414a.992.992 0 0 0 .657-.225c.18-.156.282-.417.306-.783l.576.162zm-1.809-3.267c-.294 0-.513.135-.657.405-.144.27-.216.717-.216 1.341h1.63c.023-.12.038-.231.044-.333.012-.108.018-.207.018-.297 0-.384-.075-.666-.225-.846a.735.735 0 0 0-.594-.27zm2.154.027v-.252h1.674v.738c.366-.552.801-.828 1.305-.828a.94.94 0 0 1 .54.18c.174.114.318.33.432.648l-.801.432c-.084-.246-.183-.411-.297-.495a.538.538 0 0 0-.351-.135.69.69 0 0 0-.387.126c-.126.084-.255.24-.387.468v2.673c0 .204.009.327.027.369.018.036.075.06.171.072l.675.063v.252h-2.601v-.252l.495-.063c.096-.012.153-.036.171-.072.018-.042.027-.165.027-.369v-3.051c0-.204-.009-.324-.027-.36-.018-.042-.075-.069-.171-.081l-.495-.063z" fill="#000"/><defs><linearGradient id="paint0_linear_71_76" x1="2" y1="12" x2="22" y2="12" gradientUnits="userSpaceOnUse"><stop offset=".154" stop-color="#FDC52D"/><stop offset=".529" stop-color="#E0C551"/><stop offset=".76" stop-color="#67C4EC"/></linearGradient></defs></svg>