<svg width="24" height="24" fill="none" xmlns="http://www.w3.org/2000/svg"><path d="M14.468 10a4 4 0 1 0-5.466 5.46M2 12h1m8-9v1m0 16v1M4.6 5.6l.7.7m12.1-.7l-.7.7M5.3 17.7l-.7.7M15 13h5a2 2 0 0 0 0-4m-8 7h5.967a1.999 1.999 0 0 1 1.447 3.414A2 2 0 0 1 18 20h-.286" stroke="url(#paint0_linear_72_78)" stroke-width="2" stroke-linecap="round" stroke-linejoin="round"/><defs><linearGradient id="paint0_linear_72_78" x1="2" y1="12" x2="22" y2="12" gradientUnits="userSpaceOnUse"><stop offset=".154" stop-color="#FDC52D"/><stop offset=".529" stop-color="#E0C551"/><stop offset=".76" stop-color="#67C4EC"/></linearGradient></defs></svg>