<svg width="47" height="57" viewBox="0 0 47 57" fill="none" xmlns="http://www.w3.org/2000/svg">
<path d="M8 7L1 0H47L45.2713 7H8Z" fill="#1565C0"/>
<path d="M7 8L0 1L0 16.3135L0 28C2.52981 27.2134 4.09335 27.3325 7 28L7 18.417V8Z" fill="#1565C0"/>
<circle cx="21.5" cy="26.5" r="7.5" fill="#FDC52D"/>
<path d="M3.29244 30.5136C11.4068 27.4172 17.8031 27.2941 22.3458 28.4894C26.7001 29.6352 29.3262 31.9828 30.1842 34.069L14.6748 34.0685L14.6734 34.0686L3.26501 34.1521L3.29244 30.5136Z" fill="#3A913E" stroke="#2E7D32" stroke-width="0.5"/>
<path d="M8 50L1 57H47L45.2679 50H8Z" fill="#2E7D32"/>
<path d="M7 49L0 56L0 41.2449L0 29C2.73376 28.3918 4.26596 28.4209 7 29L7 39.0409V49Z" fill="#2E7D32"/>
</svg>
