<svg width="24" height="24" viewBox="0 0 24 24" fill="none" xmlns="http://www.w3.org/2000/svg">
<path d="M14.468 10C14.1618 9.46803 13.7373 9.01367 13.2273 8.67209C12.7173 8.33051 12.1356 8.11088 11.5271 8.0302C10.9186 7.94952 10.2997 8.00996 9.71834 8.20683C9.13696 8.4037 8.60869 8.73173 8.17443 9.16551C7.74016 9.5993 7.41156 10.1272 7.21405 10.7084C7.01654 11.2895 6.95542 11.9083 7.03543 12.5169C7.11544 13.1255 7.33444 13.7075 7.67545 14.2178C8.01647 14.7282 8.47037 15.1532 9.002 15.46M2 12H3M11 3V4M11 20V21M4.6 5.6L5.3 6.3M17.4 5.6L16.7 6.3M5.3 17.7L4.6 18.4M15 13H20C20.5304 13 21.0391 12.7893 21.4142 12.4142C21.7893 12.0391 22 11.5304 22 11C22 10.4696 21.7893 9.96086 21.4142 9.58579C21.0391 9.21071 20.5304 9 20 9M12 16H17.967C18.2324 15.9956 18.496 16.0441 18.7425 16.1427C18.989 16.2412 19.2134 16.3878 19.4026 16.574C19.5918 16.7601 19.7421 16.9821 19.8447 17.2269C19.9472 17.4718 20 17.7346 20 18C20 18.5304 19.7893 19.0391 19.4142 19.4142C19.0391 19.7893 18.5304 20 18 20H17.714" stroke="white" stroke-width="2" stroke-linecap="round" stroke-linejoin="round"/>
</svg>
